<svg width="128" height="128" viewBox="0 0 128 128" fill="none" xmlns="http://www.w3.org/2000/svg">
<rect width="128" height="128" fill="#049BAF"/>
<path d="M65.9384 116C58.363 116 51.3151 114.704 44.7945 112.111C38.274 109.422 32.5205 105.725 27.5342 101.019C22.6438 96.2179 18.8082 90.6962 16.0274 84.4543C13.3425 78.1163 12 71.2982 12 64C12 56.7018 13.3425 49.9317 16.0274 43.6898C18.8082 37.3518 22.5959 31.8301 27.3904 27.1247C32.2808 22.3232 37.9863 18.626 44.5069 16.0332C51.0274 13.3444 58.0274 12 65.5069 12C74.0411 12 82.0959 13.7765 89.6712 17.3296C97.2466 20.7867 103.432 25.5882 108.226 31.7341L90.8219 47.4349C87.5616 43.2096 83.774 40.0406 79.4589 37.928C75.2397 35.8153 70.589 34.759 65.5069 34.759C61.4795 34.759 57.7397 35.5272 54.2877 37.0637C50.9315 38.5042 47.9589 40.5208 45.3699 43.1136C42.8767 45.7064 40.911 48.7793 39.4726 52.3324C38.1301 55.8855 37.4589 59.7747 37.4589 64C37.4589 68.2253 38.1781 72.1625 39.6164 75.8116C41.0548 79.3647 43.0685 82.4857 45.6575 85.1745C48.3425 87.7673 51.411 89.832 54.863 91.3684C58.411 92.8089 62.2466 93.5291 66.3699 93.5291C70.3014 93.5291 73.8493 92.8569 77.0137 91.5125C80.274 90.1681 83.0548 88.2955 85.3562 85.8947C87.6575 83.494 89.2877 80.7572 90.2466 77.6842H63.0616V56.2216L117 56.2216V63.4238C117 71.0102 115.705 78.0203 113.116 84.4543C110.623 90.7922 107.075 96.362 102.473 101.163C97.9658 105.869 92.5959 109.518 86.363 112.111C80.1301 114.704 73.3219 116 65.9384 116Z" fill="white"/>
</svg>
