<svg width="32" height="22" viewBox="0 0 32 22" fill="none" xmlns="http://www.w3.org/2000/svg">
<path fill-rule="evenodd" clip-rule="evenodd" d="M2.87305 0H29.127C29.9182 0 30.6361 0.316617 31.1566 0.826788C31.677 1.33697 32 2.04211 32 2.81637V19.1822C32 19.9579 31.677 20.6616 31.1566 21.1718C30.6361 21.682 29.9168 21.9986 29.127 21.9986L2.87305 22C2.0818 22 1.36388 21.6834 0.843428 21.1732C0.322979 20.663 0 19.9579 0 19.1836V2.81775C0 2.04211 0.32299 1.33835 0.843428 0.828171C1.36388 0.316609 2.0818 0 2.87305 0ZM30.0946 20.2802L19.8239 11.8849L18.2936 13.1348C17.6589 13.6532 16.8324 13.9159 16.0129 13.9201C15.1921 13.9242 14.3669 13.6685 13.7365 13.1527L12.185 11.8849L1.90996 20.2841C2.16948 20.5025 2.50656 20.6367 2.8733 20.6367H29.1272C29.4953 20.6353 29.8337 20.5014 30.0946 20.2802ZM1.39229 18.9391L11.1033 11L1.39229 3.06091V18.9391ZM1.90993 1.71591L12.6164 10.468L12.6362 10.4832L14.6221 12.1064C14.9944 12.4106 15.498 12.5613 16.0071 12.5599C16.5191 12.5571 17.0269 12.4009 17.4077 12.0898L19.3724 10.4832L19.3907 10.468L30.0947 1.7187C29.8338 1.49749 29.4953 1.36337 29.1272 1.36337L2.87325 1.36476C2.50655 1.36476 2.16946 1.49745 1.90993 1.71591ZM30.6094 3.0681L20.9056 11.0001L30.6079 18.9321V3.0681H30.6094Z" fill="#333333"/>
</svg>
