<svg width="18" height="30" viewBox="0 0 18 30" fill="none" xmlns="http://www.w3.org/2000/svg">
<path d="M16.7174 10.3115C16.7174 8.05579 15.854 6.01394 14.4567 4.53477C13.0595 3.05675 11.1308 2.14153 9.00011 2.14153C6.86937 2.14153 4.94067 3.0556 3.54347 4.53477C2.14736 6.01394 1.28285 8.05579 1.28285 10.3115C1.28285 13.9737 5.20927 19.7679 7.93494 23.7894L7.93603 23.7906L7.93821 23.7894C8.31808 24.3499 8.6761 24.878 8.99922 25.3668C9.32343 24.878 9.68036 24.3511 10.0602 23.7894C10.0701 23.7744 10.081 23.7606 10.0919 23.7455C12.8164 19.7263 16.7143 13.9599 16.7143 10.3117L16.7174 10.3115ZM9.00005 5.12171C10.4005 5.12171 11.6668 5.72261 12.5847 6.69448C13.5016 7.66517 14.0692 9.00684 14.0692 10.4894C14.0692 11.9721 13.5016 13.3137 12.5847 14.2844C11.6678 15.2551 10.4005 15.856 9.00005 15.856C7.59958 15.856 6.33335 15.2551 5.41539 14.2844C4.49849 13.3137 3.93086 11.972 3.93086 10.4894C3.93086 9.00681 4.49846 7.6663 5.41539 6.69448C6.33229 5.72379 7.59961 5.12171 9.00005 5.12171ZM11.6777 7.65479C10.9932 6.93023 10.0458 6.48068 9.00005 6.48068C7.95433 6.48068 7.00795 6.9302 6.32245 7.65479C5.63805 8.37935 5.21341 9.3824 5.21341 10.4883C5.21341 11.5954 5.63802 12.5984 6.32245 13.323C7.00686 14.0476 7.95433 14.4971 9.00005 14.4971C10.0458 14.4971 10.9922 14.0476 11.6777 13.323C12.3621 12.5984 12.7867 11.5954 12.7867 10.4883C12.7867 9.38125 12.3621 8.37935 11.6777 7.65479ZM13.5944 25.3412C13.2561 25.2315 13.0672 24.8524 13.1709 24.4942C13.2746 24.136 13.6326 23.936 13.9711 24.0458C14.7657 24.3047 15.4196 24.6294 15.8802 25.0027C16.4281 25.4453 16.7327 25.9711 16.7327 26.5604C16.7327 27.5831 15.771 28.4359 14.2177 28.9906C12.8708 29.4702 11.0249 29.7684 9.00114 29.7684C6.97743 29.7684 5.13256 29.4714 3.78454 28.9906C2.23015 28.4371 1.26958 27.5831 1.26958 26.5604C1.26958 25.9711 1.57411 25.4453 2.12209 25.0027C2.58272 24.6294 3.23659 24.3047 4.03123 24.0458C4.36961 23.936 4.72656 24.136 4.83136 24.4942C4.93505 24.8524 4.74621 25.2303 4.40784 25.3412C3.75727 25.5539 3.24095 25.8046 2.90039 26.0808C2.67771 26.2611 2.55436 26.4252 2.55436 26.5604C2.55436 26.9348 3.17983 27.3451 4.19281 27.7056C5.41209 28.1401 7.11045 28.4082 9.00338 28.4082C10.8951 28.4082 12.5947 28.139 13.8139 27.7056C14.8258 27.3439 15.4524 26.9348 15.4524 26.5604C15.4524 26.424 15.329 26.26 15.1064 26.0808C14.7658 25.8058 14.2484 25.5539 13.5989 25.3412H13.5944ZM15.3639 3.57435C16.9925 5.2985 18 7.68141 18 10.3114C18 14.3871 13.9568 20.3674 11.1319 24.5345C11.1232 24.5495 11.1133 24.5646 11.1046 24.5796C10.5032 25.4671 9.95846 26.2702 9.53821 26.9278C9.49346 27.0029 9.43233 27.0687 9.3581 27.1219C9.06447 27.3311 8.66604 27.2502 8.46848 26.9393C8.04714 26.2795 7.50027 25.4717 6.89553 24.5796L6.89772 24.5773C4.07173 20.4078 0 14.3988 0 10.31C0 7.6799 1.00752 5.29713 2.63613 3.57301C4.26474 1.84889 6.51561 0.782227 8.99984 0.782227C11.4841 0.782227 13.735 1.84886 15.3635 3.57301L15.3639 3.57435Z" fill="white"/>
</svg>

