<svg width="315" height="144" viewBox="0 0 315 144" fill="none" xmlns="http://www.w3.org/2000/svg">
  <path d="M29.4463 62.792C25.6543 62.792 22.1263 62.144 18.8623 60.848C15.5983 59.504 12.7183 57.656 10.2223 55.304C7.77431 52.904 5.85431 50.144 4.46231 47.024C3.11831 43.856 2.44631 40.448 2.44631 36.8C2.44631 33.152 3.11831 29.768 4.46231 26.648C5.85431 23.48 7.75031 20.72 10.1503 18.368C12.5983 15.968 15.4543 14.12 18.7183 12.824C21.9823 11.48 25.4863 10.808 29.2303 10.808C33.5023 10.808 37.5343 11.696 41.3263 13.472C45.1183 15.2 48.2143 17.6 50.6143 20.672L41.9023 28.52C40.2703 26.408 38.3743 24.824 36.2143 23.768C34.1023 22.712 31.7743 22.184 29.2303 22.184C27.2143 22.184 25.3423 22.568 23.6143 23.336C21.9343 24.056 20.4463 25.064 19.1503 26.36C17.9023 27.656 16.9183 29.192 16.1983 30.968C15.5263 32.744 15.1903 34.688 15.1903 36.8C15.1903 38.912 15.5503 40.88 16.2703 42.704C16.9903 44.48 17.9983 46.04 19.2943 47.384C20.6383 48.68 22.1743 49.712 23.9023 50.48C25.6783 51.2 27.5983 51.56 29.6623 51.56C31.6303 51.56 33.4063 51.224 34.9903 50.552C36.6223 49.88 38.0143 48.944 39.1663 47.744C40.3183 46.544 41.1343 45.176 41.6143 43.64H28.0063L28.0063 32.912H55.0063V36.512C55.0063 40.304 54.3583 43.808 53.0623 47.024C51.8143 50.192 50.0383 52.976 47.7343 55.376C45.4783 57.728 42.7903 59.552 39.6703 60.848C36.5503 62.144 33.1423 62.792 29.4463 62.792ZM61.551 62L61.551 11.6L101.295 11.6V22.328L73.935 22.328V31.4L92.007 31.4V41.768H73.935L73.935 51.272H101.583V62L61.551 62ZM131.117 62.792C127.325 62.792 123.797 62.144 120.533 60.848C117.269 59.504 114.413 57.656 111.965 55.304C109.517 52.904 107.597 50.144 106.205 47.024C104.861 43.856 104.188 40.448 104.188 36.8C104.188 33.152 104.861 29.768 106.205 26.648C107.597 23.48 109.517 20.72 111.965 18.368C114.413 15.968 117.269 14.12 120.533 12.824C123.797 11.48 127.325 10.808 131.117 10.808C134.909 10.808 138.437 11.48 141.701 12.824C144.965 14.12 147.821 15.968 150.269 18.368C152.717 20.72 154.613 23.48 155.957 26.648C157.349 29.768 158.045 33.152 158.045 36.8C158.045 40.448 157.349 43.856 155.957 47.024C154.613 50.144 152.717 52.904 150.269 55.304C147.821 57.656 144.965 59.504 141.701 60.848C138.437 62.144 134.909 62.792 131.117 62.792ZM131.117 51.416C133.133 51.416 135.005 51.056 136.733 50.336C138.461 49.568 139.949 48.536 141.197 47.24C142.493 45.944 143.501 44.408 144.221 42.632C144.941 40.808 145.301 38.864 145.301 36.8C145.301 34.688 144.941 32.744 144.221 30.968C143.501 29.192 142.493 27.656 141.197 26.36C139.949 25.064 138.461 24.056 136.733 23.336C135.005 22.568 133.133 22.184 131.117 22.184C129.101 22.184 127.229 22.568 125.501 23.336C123.773 24.056 122.261 25.064 120.965 26.36C119.717 27.656 118.733 29.192 118.013 30.968C117.293 32.744 116.933 34.688 116.933 36.8C116.933 38.864 117.293 40.808 118.013 42.632C118.733 44.408 119.717 45.944 120.965 47.24C122.261 48.536 123.773 49.568 125.501 50.336C127.229 51.056 129.101 51.416 131.117 51.416ZM164.629 62V11.6L190.405 11.6C193.861 11.6 196.933 12.296 199.621 13.688C202.309 15.032 204.397 16.928 205.885 19.376C207.421 21.776 208.189 24.536 208.189 27.656C208.189 30.824 207.325 33.656 205.597 36.152C203.869 38.648 201.589 40.544 198.757 41.84L209.773 62L195.949 62L186.445 43.64H177.013V62H164.629ZM177.013 33.56H189.253C191.173 33.56 192.709 33.032 193.861 31.976C195.061 30.92 195.661 29.552 195.661 27.872C195.661 26.192 195.061 24.824 193.861 23.768C192.709 22.712 191.173 22.184 189.253 22.184L177.013 22.184V33.56ZM239.751 62.792C235.959 62.792 232.431 62.144 229.167 60.848C225.903 59.504 223.023 57.656 220.527 55.304C218.079 52.904 216.159 50.144 214.767 47.024C213.423 43.856 212.751 40.448 212.751 36.8C212.751 33.152 213.423 29.768 214.767 26.648C216.159 23.48 218.055 20.72 220.455 18.368C222.903 15.968 225.759 14.12 229.023 12.824C232.287 11.48 235.791 10.808 239.535 10.808C243.807 10.808 247.839 11.696 251.631 13.472C255.423 15.2 258.519 17.6 260.919 20.672L252.207 28.52C250.575 26.408 248.679 24.824 246.519 23.768C244.407 22.712 242.079 22.184 239.535 22.184C237.519 22.184 235.647 22.568 233.919 23.336C232.239 24.056 230.751 25.064 229.455 26.36C228.207 27.656 227.223 29.192 226.503 30.968C225.831 32.744 225.495 34.688 225.495 36.8C225.495 38.912 225.855 40.88 226.575 42.704C227.295 44.48 228.303 46.04 229.599 47.384C230.943 48.68 232.479 49.712 234.207 50.48C235.983 51.2 237.903 51.56 239.967 51.56C241.935 51.56 243.711 51.224 245.295 50.552C246.927 49.88 248.319 48.944 249.471 47.744C250.623 46.544 251.439 45.176 251.919 43.64L238.311 43.64V32.912L265.311 32.912V36.512C265.311 40.304 264.663 43.808 263.367 47.024C262.119 50.192 260.343 52.976 258.039 55.376C255.783 57.728 253.095 59.552 249.975 60.848C246.855 62.144 243.447 62.792 239.751 62.792ZM271.856 62V11.6L311.6 11.6V22.328L284.24 22.328V31.4L302.312 31.4V41.768L284.24 41.768V51.272L311.888 51.272V62L271.856 62ZM54.3223 134.72C50.2423 134.72 46.2103 133.976 42.2263 132.488C38.2423 131 34.6903 128.936 31.5703 126.296L38.4823 117.296C41.5543 119.792 44.3863 121.592 46.9783 122.696C49.5703 123.752 52.3303 124.28 55.2583 124.28C57.1783 124.28 58.8103 124.088 60.1543 123.704C61.4983 123.32 62.5303 122.768 63.2503 122.048C63.9703 121.28 64.3303 120.392 64.3303 119.384C64.3303 117.992 63.8023 116.912 62.7463 116.144C61.6903 115.376 59.8903 114.776 57.3463 114.344L46.2583 112.4C42.1783 111.68 39.0343 110.12 36.8263 107.72C34.6183 105.32 33.5143 102.272 33.5143 98.576C33.5143 95.312 34.3303 92.504 35.9623 90.152C37.6423 87.8 40.0183 86 43.0903 84.752C46.2103 83.504 49.9063 82.88 54.1783 82.88C57.9223 82.88 61.6903 83.528 65.4823 84.824C69.2743 86.072 72.5623 87.824 75.3463 90.08L68.7943 99.224C63.6103 95.24 58.4503 93.248 53.3143 93.248C51.6343 93.248 50.1703 93.44 48.9223 93.824C47.7223 94.16 46.7863 94.664 46.1143 95.336C45.4903 95.96 45.1783 96.728 45.1783 97.64C45.1783 98.888 45.6343 99.848 46.5463 100.52C47.5063 101.192 49.0423 101.72 51.1543 102.104L61.5943 103.832C66.4423 104.6 70.1143 106.208 72.6103 108.656C75.1543 111.104 76.4263 114.272 76.4263 118.16C76.4263 121.568 75.5383 124.52 73.7623 127.016C71.9863 129.464 69.4423 131.36 66.1303 132.704C62.8183 134.048 58.8823 134.72 54.3223 134.72ZM82.0823 134L82.0823 83.6H97.7063L110.162 107.36L122.618 83.6L138.242 83.6L138.242 134H126.578L126.578 99.656L110.018 130.4L93.4583 99.512L93.4583 134L82.0823 134ZM146.629 134L146.629 83.6H186.373L186.373 94.328H159.013V103.4H177.085V113.768H159.013V123.272H186.661V134H146.629ZM193.949 134L193.949 83.6H219.725C223.181 83.6 226.253 84.296 228.941 85.688C231.629 87.032 233.717 88.928 235.205 91.376C236.741 93.776 237.509 96.536 237.509 99.656C237.509 102.824 236.645 105.656 234.917 108.152C233.189 110.648 230.909 112.544 228.077 113.84L239.093 134H225.269L215.765 115.64H206.333V134H193.949ZM206.333 105.56H218.573C220.493 105.56 222.029 105.032 223.181 103.976C224.381 102.92 224.981 101.552 224.981 99.872C224.981 98.192 224.381 96.824 223.181 95.768C222.029 94.712 220.493 94.184 218.573 94.184H206.333V105.56ZM243.871 134L243.871 83.6H256.255V134H243.871ZM264.614 134V83.6H276.278L299.174 112.832V83.6L310.838 83.6V134H299.894L276.278 103.616V134L264.614 134Z" fill="white"/>
</svg>
